<mxfile host="65bd71144e">
    <diagram id="xjG_r_Eo5eGMvJh9_Ut1" name="Page-1">
        <mxGraphModel dx="1869" dy="1250" grid="1" gridSize="15" guides="1" tooltips="1" connect="1" arrows="1" fold="1" page="1" pageScale="1" pageWidth="1654" pageHeight="1169" math="0" shadow="0">
            <root>
                <mxCell id="0"/>
                <mxCell id="1" parent="0"/>
                <mxCell id="3" value="" style="ellipse;fillColor=strokeColor;" vertex="1" parent="1">
                    <mxGeometry x="450" y="60" width="30" height="30" as="geometry"/>
                </mxCell>
                <mxCell id="5" value="Fisk af!" style="shape=umlFrame;whiteSpace=wrap;html=1;width=120;height=30;boundedLbl=1;verticalAlign=middle;align=left;spacingLeft=5;" vertex="1" parent="1">
                    <mxGeometry x="15" y="15" width="215" height="60" as="geometry"/>
                </mxCell>
                <mxCell id="13" style="edgeStyle=none;html=1;" edge="1" parent="1" source="8">
                    <mxGeometry relative="1" as="geometry">
                        <mxPoint x="465" y="169.99999999999977" as="targetPoint"/>
                    </mxGeometry>
                </mxCell>
                <mxCell id="8" value="" style="ellipse;html=1;" vertex="1" parent="1">
                    <mxGeometry x="450" y="100" width="30" height="30" as="geometry"/>
                </mxCell>
                <mxCell id="19" style="edgeStyle=none;html=1;fontFamily=Verdana;" edge="1" parent="1" source="18">
                    <mxGeometry relative="1" as="geometry">
                        <mxPoint x="465.5" y="309.9999999999998" as="targetPoint"/>
                    </mxGeometry>
                </mxCell>
                <mxCell id="18" value="&lt;div style=&quot;&quot;&gt;&lt;span style=&quot;font-family: Verdana; background-color: initial;&quot;&gt;Affald falder ned&amp;nbsp;&lt;/span&gt;&lt;/div&gt;&lt;font face=&quot;Verdana&quot;&gt;&lt;div style=&quot;&quot;&gt;&lt;span style=&quot;background-color: initial;&quot;&gt;Fisk bevæger sig horisontalt&lt;/span&gt;&lt;/div&gt;&lt;/font&gt;" style="html=1;align=center;verticalAlign=middle;rounded=1;absoluteArcSize=1;arcSize=10;dashed=0;" vertex="1" parent="1">
                    <mxGeometry x="378" y="190" width="175" height="60" as="geometry"/>
                </mxCell>
                <mxCell id="21" style="edgeStyle=none;html=1;fontFamily=Verdana;" edge="1" parent="1" source="20">
                    <mxGeometry relative="1" as="geometry">
                        <mxPoint x="320" y="414.9999999999998" as="targetPoint"/>
                    </mxGeometry>
                </mxCell>
                <mxCell id="22" style="edgeStyle=none;html=1;fontFamily=Verdana;" edge="1" parent="1" source="20">
                    <mxGeometry relative="1" as="geometry">
                        <mxPoint x="580" y="420" as="targetPoint"/>
                    </mxGeometry>
                </mxCell>
                <mxCell id="65" style="edgeStyle=none;rounded=0;html=1;entryX=0.5;entryY=0;entryDx=0;entryDy=0;fontFamily=Verdana;fontSize=16;fontColor=#FFFFFF;" edge="1" parent="1" source="20" target="64">
                    <mxGeometry relative="1" as="geometry">
                        <Array as="points">
                            <mxPoint x="675" y="375"/>
                            <mxPoint x="1080" y="375"/>
                        </Array>
                    </mxGeometry>
                </mxCell>
                <mxCell id="20" value="" style="html=1;points=[];perimeter=orthogonalPerimeter;fillColor=strokeColor;fontFamily=Verdana;rotation=-90;" vertex="1" parent="1">
                    <mxGeometry x="440" y="87.5" width="5" height="470" as="geometry"/>
                </mxCell>
                <mxCell id="27" value="" style="edgeStyle=none;html=1;fontFamily=Verdana;fontColor=#1A1A1A;" edge="1" parent="1" source="23" target="26">
                    <mxGeometry relative="1" as="geometry"/>
                </mxCell>
                <mxCell id="23" value="&lt;font color=&quot;#1a1a1a&quot;&gt;Klik på Affald&lt;/font&gt;" style="html=1;shape=mxgraph.infographic.ribbonSimple;notch1=20;notch2=0;align=center;verticalAlign=middle;fontSize=14;fontStyle=0;flipH=1;fillColor=#FFFFFF;fontFamily=Verdana;" vertex="1" parent="1">
                    <mxGeometry x="240" y="430" width="160" height="40" as="geometry"/>
                </mxCell>
                <mxCell id="41" value="" style="edgeStyle=none;html=1;fontFamily=Verdana;fontColor=#1A1A1A;" edge="1" parent="1" source="26" target="40">
                    <mxGeometry relative="1" as="geometry"/>
                </mxCell>
                <mxCell id="26" value="&lt;font color=&quot;#1a1a1a&quot;&gt;Afspil lyd&lt;br&gt;Fjern affald&lt;br&gt;&lt;/font&gt;" style="html=1;shape=mxgraph.infographic.ribbonSimple;notch1=20;notch2=0;align=center;verticalAlign=middle;fontSize=14;fontStyle=0;flipH=1;fillColor=#FFFFFF;fontFamily=Verdana;" vertex="1" parent="1">
                    <mxGeometry x="240" y="520" width="160" height="40" as="geometry"/>
                </mxCell>
                <mxCell id="32" value="" style="edgeStyle=none;html=1;fontFamily=Verdana;fontColor=#1A1A1A;" edge="1" source="33" target="35" parent="1">
                    <mxGeometry relative="1" as="geometry"/>
                </mxCell>
                <mxCell id="33" value="&lt;font color=&quot;#1a1a1a&quot;&gt;Klik på fisk&lt;/font&gt;" style="html=1;shape=mxgraph.infographic.ribbonSimple;notch1=20;notch2=0;align=center;verticalAlign=middle;fontSize=14;fontStyle=0;flipH=1;fillColor=#FFFFFF;fontFamily=Verdana;" vertex="1" parent="1">
                    <mxGeometry x="500" y="430" width="160" height="40" as="geometry"/>
                </mxCell>
                <mxCell id="43" value="" style="edgeStyle=none;html=1;fontFamily=Verdana;fontColor=#1A1A1A;" edge="1" parent="1" source="35" target="42">
                    <mxGeometry relative="1" as="geometry"/>
                </mxCell>
                <mxCell id="35" value="&lt;span style=&quot;color: rgb(26, 26, 26);&quot;&gt;Afspil lyd&lt;/span&gt;&lt;br style=&quot;color: rgb(26, 26, 26);&quot;&gt;&lt;span style=&quot;color: rgb(26, 26, 26);&quot;&gt;Fjern fisk&lt;/span&gt;" style="html=1;shape=mxgraph.infographic.ribbonSimple;notch1=20;notch2=0;align=center;verticalAlign=middle;fontSize=14;fontStyle=0;flipH=1;fillColor=#FFFFFF;fontFamily=Verdana;" vertex="1" parent="1">
                    <mxGeometry x="500" y="520" width="160" height="40" as="geometry"/>
                </mxCell>
                <mxCell id="51" style="edgeStyle=none;html=1;fontFamily=Verdana;fontColor=#1A1A1A;curved=1;" edge="1" parent="1" source="39">
                    <mxGeometry relative="1" as="geometry">
                        <mxPoint x="210" y="330" as="targetPoint"/>
                        <Array as="points">
                            <mxPoint x="120" y="735"/>
                        </Array>
                    </mxGeometry>
                </mxCell>
                <mxCell id="39" value="" style="html=1;points=[];perimeter=orthogonalPerimeter;fillColor=strokeColor;fontFamily=Verdana;rotation=-90;" vertex="1" parent="1">
                    <mxGeometry x="440" y="600" width="5" height="470" as="geometry"/>
                </mxCell>
                <mxCell id="48" style="edgeStyle=none;html=1;entryX=1.043;entryY=0.237;entryDx=0;entryDy=0;entryPerimeter=0;fontFamily=Verdana;fontColor=#1A1A1A;" edge="1" parent="1" source="40" target="39">
                    <mxGeometry relative="1" as="geometry"/>
                </mxCell>
                <mxCell id="40" value="&lt;font color=&quot;#1a1a1a&quot;&gt;Tilføj 1 point&lt;br&gt;&lt;/font&gt;" style="html=1;shape=mxgraph.infographic.ribbonSimple;notch1=20;notch2=0;align=center;verticalAlign=middle;fontSize=14;fontStyle=0;flipH=1;fillColor=#FFFFFF;fontFamily=Verdana;" vertex="1" parent="1">
                    <mxGeometry x="240" y="610" width="160" height="40" as="geometry"/>
                </mxCell>
                <mxCell id="45" value="" style="edgeStyle=none;html=1;fontFamily=Verdana;fontColor=#1A1A1A;" edge="1" parent="1" source="42" target="44">
                    <mxGeometry relative="1" as="geometry"/>
                </mxCell>
                <mxCell id="42" value="&lt;font color=&quot;#1a1a1a&quot;&gt;Fjern 1 liv&lt;/font&gt;" style="html=1;shape=mxgraph.infographic.ribbonSimple;notch1=20;notch2=0;align=center;verticalAlign=middle;fontSize=14;fontStyle=0;flipH=1;fillColor=#FFFFFF;fontFamily=Verdana;" vertex="1" parent="1">
                    <mxGeometry x="500" y="610" width="160" height="40" as="geometry"/>
                </mxCell>
                <mxCell id="46" style="edgeStyle=none;html=1;fontFamily=Verdana;fontColor=#1A1A1A;" edge="1" parent="1" source="44" target="39">
                    <mxGeometry relative="1" as="geometry"/>
                </mxCell>
                <mxCell id="53" style="edgeStyle=none;html=1;fontFamily=Verdana;fontColor=#1A1A1A;rounded=0;" edge="1" parent="1" source="44">
                    <mxGeometry relative="1" as="geometry">
                        <mxPoint x="945" y="855" as="targetPoint"/>
                        <Array as="points">
                            <mxPoint x="945" y="735"/>
                        </Array>
                    </mxGeometry>
                </mxCell>
                <mxCell id="44" value="" style="rhombus;whiteSpace=wrap;html=1;fontSize=14;fontFamily=Verdana;fillColor=#FFFFFF;fontStyle=0;" vertex="1" parent="1">
                    <mxGeometry x="550" y="710" width="60" height="55" as="geometry"/>
                </mxCell>
                <mxCell id="57" value="&lt;font style=&quot;font-size: 16px;&quot;&gt;Liv = 0&lt;/font&gt;" style="html=1;align=center;verticalAlign=middle;rounded=1;absoluteArcSize=1;arcSize=10;dashed=1;fontFamily=Verdana;fontColor=#1A1A1A;" vertex="1" parent="1">
                    <mxGeometry x="720" y="670" width="140" height="40" as="geometry"/>
                </mxCell>
                <mxCell id="61" style="edgeStyle=none;rounded=0;html=1;entryX=0;entryY=0.5;entryDx=0;entryDy=0;fontFamily=Verdana;fontSize=16;fontColor=#FFFFFF;" edge="1" parent="1" source="58" target="60">
                    <mxGeometry relative="1" as="geometry">
                        <Array as="points">
                            <mxPoint x="940" y="1005"/>
                        </Array>
                    </mxGeometry>
                </mxCell>
                <mxCell id="58" value="Game Lost" style="html=1;align=center;verticalAlign=middle;rounded=1;absoluteArcSize=1;arcSize=31;dashed=0;fontFamily=Verdana;fontSize=16;fontColor=#ffffff;fillColor=#a20025;strokeColor=none;glass=0;gradientColor=none;" vertex="1" parent="1">
                    <mxGeometry x="870" y="870" width="140" height="40" as="geometry"/>
                </mxCell>
                <mxCell id="62" style="edgeStyle=none;rounded=0;html=1;entryX=1;entryY=0.5;entryDx=0;entryDy=0;fontFamily=Verdana;fontSize=16;fontColor=#FFFFFF;" edge="1" parent="1" source="59" target="60">
                    <mxGeometry relative="1" as="geometry">
                        <Array as="points">
                            <mxPoint x="1210" y="1005"/>
                        </Array>
                    </mxGeometry>
                </mxCell>
                <mxCell id="59" value="Game Won" style="html=1;align=center;verticalAlign=middle;rounded=1;absoluteArcSize=1;arcSize=31;dashed=0;fontFamily=Verdana;fontSize=16;fontColor=#ffffff;fillColor=#60a917;strokeColor=#2D7600;glass=0;" vertex="1" parent="1">
                    <mxGeometry x="1140" y="870" width="140" height="40" as="geometry"/>
                </mxCell>
                <mxCell id="60" value="" style="ellipse;html=1;shape=endState;fillColor=strokeColor;fontFamily=Verdana;fontSize=16;fontColor=#FFFFFF;align=center;strokeColor=default;" vertex="1" parent="1">
                    <mxGeometry x="1065" y="990" width="30" height="30" as="geometry"/>
                </mxCell>
                <mxCell id="68" value="" style="edgeStyle=none;rounded=0;html=1;fontFamily=Verdana;fontSize=16;fontColor=#FFFFFF;" edge="1" parent="1" source="64" target="67">
                    <mxGeometry relative="1" as="geometry"/>
                </mxCell>
                <mxCell id="64" value="" style="shape=collate;whiteSpace=wrap;html=1;rounded=1;glass=0;strokeColor=default;fontFamily=Verdana;fontSize=16;fontColor=#FFFFFF;gradientColor=none;fillColor=#FCFCFC;" vertex="1" parent="1">
                    <mxGeometry x="1040" y="430" width="80" height="80" as="geometry"/>
                </mxCell>
                <mxCell id="66" value="&lt;font style=&quot;font-size: 16px;&quot;&gt;Tid - 30 sek&lt;/font&gt;" style="html=1;align=center;verticalAlign=middle;rounded=1;absoluteArcSize=1;arcSize=10;dashed=1;fontFamily=Verdana;fontColor=#1A1A1A;" vertex="1" parent="1">
                    <mxGeometry x="1140" y="450" width="140" height="40" as="geometry"/>
                </mxCell>
                <mxCell id="70" style="edgeStyle=none;rounded=0;html=1;entryX=0.75;entryY=0;entryDx=0;entryDy=0;fontFamily=Verdana;fontSize=16;fontColor=#FFFFFF;" edge="1" parent="1" source="67" target="58">
                    <mxGeometry relative="1" as="geometry">
                        <Array as="points">
                            <mxPoint x="975" y="780"/>
                        </Array>
                    </mxGeometry>
                </mxCell>
                <mxCell id="71" style="edgeStyle=none;rounded=0;html=1;entryX=0.5;entryY=0;entryDx=0;entryDy=0;fontFamily=Verdana;fontSize=16;fontColor=#FFFFFF;" edge="1" parent="1" source="67" target="59">
                    <mxGeometry relative="1" as="geometry">
                        <Array as="points">
                            <mxPoint x="1210" y="780"/>
                        </Array>
                    </mxGeometry>
                </mxCell>
                <mxCell id="67" value="" style="rhombus;whiteSpace=wrap;html=1;fontSize=16;fontFamily=Verdana;fillColor=#FCFCFC;strokeColor=default;fontColor=#FFFFFF;rounded=0;glass=0;gradientColor=none;" vertex="1" parent="1">
                    <mxGeometry x="1065" y="765" width="30" height="30" as="geometry"/>
                </mxCell>
                <mxCell id="69" value="&lt;span style=&quot;font-size: 16px;&quot;&gt;Point = 25&lt;/span&gt;" style="html=1;align=center;verticalAlign=middle;rounded=1;absoluteArcSize=1;arcSize=10;dashed=1;fontFamily=Verdana;fontColor=#1A1A1A;" vertex="1" parent="1">
                    <mxGeometry x="1110" y="725" width="140" height="40" as="geometry"/>
                </mxCell>
            </root>
        </mxGraphModel>
    </diagram>
</mxfile>